<svg xmlns="http://www.w3.org/2000/svg" viewBox="0 0 144.05 166.25"><defs><style>.cls-1{fill:#f6931f;}.cls-2{fill:#fcbb38;}.cls-3{fill:#f2662b;}</style></defs><title>Asset 1</title><g id="Layer_2" data-name="Layer 2"><g id="grid"><polygon class="cls-1" points="144.05 41.57 143.95 124.7 72 166.25 72.1 83.16 90.11 72.78 90.04 114.23 90 135.07 126 114.28 125.89 72.78 107.91 83.16 107.98 62.31 144.05 41.57"/><polygon class="cls-2" points="144.05 41.57 107.98 62.31 90.08 51.98 126 31.14 144.05 41.57"/><polygon class="cls-3" points="125.89 72.78 126 114.28 107.94 103.93 107.91 83.16 125.89 72.78"/><polygon class="cls-2" points="126 114.28 90 135.07 90.04 114.23 90.09 114.23 107.94 103.93 126 114.28"/><polygon class="cls-3" points="107.98 62.31 107.91 83.16 90.11 72.78 90.08 51.98 107.98 62.31"/><polygon class="cls-2" points="54.06 51.9 90.11 72.78 72.1 83.16 0.06 41.57 72.05 0 90.01 10.35 36.08 41.49 54.06 51.9"/><polygon class="cls-1" points="90.01 10.35 90.09 31.09 54.06 51.9 36.08 41.49 90.01 10.35"/><polygon class="cls-3" points="36.08 83.19 18 72.78 18 135.07 0 124.68 0.06 41.57 72.1 83.16 72 166.25 54 155.85 54 93.5 36.08 83.19"/><polygon class="cls-1" points="36.08 83.19 36.08 124.63 18 135.07 18 72.78 36.08 83.19"/></g></g></svg>