<svg xmlns="http://www.w3.org/2000/svg" viewBox="0 0 146 167.72"><defs><style>.cls-1{fill:none;stroke:#fcbb38;stroke-miterlimit:10;}</style></defs><title>Asset 16</title><g id="Layer_2" data-name="Layer 2"><g id="grid"><polygon class="cls-1" points="1 125.29 1 42.15 73 83.72 73 166.86 55 156.46 55 94.11 19 73.33 19 135.68 1 125.29"/><polygon class="cls-1" points="19 135.68 37 125.29 37 83.72 19 73.33 19 135.68"/><polygon class="cls-1" points="91 10.97 73 0.58 1 42.15 73 83.72 91 73.32 37 42.15 91 10.97"/><polygon class="cls-1" points="91 73.32 91 135.68 127 114.89 127 73.32 109 83.72 108.78 63.06 145 42.15 145 125.28 73 166.86 73 83.72 91 73.32"/><polygon class="cls-1" points="108.78 63.06 91 52.54 127 31.75 145 42.15 108.78 63.06"/><polygon class="cls-1" points="109 83.72 91 73.32 91 52.54 108.78 63.06 109 83.72"/><polygon class="cls-1" points="91 10.97 91 31.76 55 52.54 37 42.15 91 10.97"/><polygon class="cls-1" points="91 114.89 109 104.5 127 114.89 91 135.68 91 114.89"/><polygon class="cls-1" points="109 104.5 109 83.72 127 73.32 127 114.89 109 104.5"/></g></g></svg>